<svg width="18" height="17" viewBox="0 0 18 17" fill="none" xmlns="http://www.w3.org/2000/svg">
<path d="M9.00009 0.339844C4.49289 0.339844 0.840088 3.99264 0.840088 8.49984C0.840088 13.007 4.49289 16.6598 9.00009 16.6598C13.5073 16.6598 17.1601 13.007 17.1601 8.49984C17.1601 6.93504 16.7234 5.47543 15.9554 4.23703L15.6676 4.68422C16.3108 5.80742 16.6801 7.11264 16.6801 8.49984C16.6801 12.743 13.2433 16.1798 9.00009 16.1798C4.75689 16.1798 1.32009 12.743 1.32009 8.49984C1.32009 4.25664 4.75689 0.819844 9.00009 0.819844C11.2993 0.819844 13.3632 1.82769 14.7648 3.42609L15.0338 3.00891C13.5458 1.36731 11.3905 0.339844 9.00009 0.339844ZM16.2217 2.32828C16.13 2.31199 16.0313 2.35034 15.977 2.43422L9.71259 12.1167L5.58103 7.38234C5.49319 7.2825 5.34195 7.27155 5.24259 7.35891C5.14275 7.44627 5.13179 7.5975 5.21915 7.69734L9.56071 12.6727C9.60679 12.725 9.67253 12.7552 9.74165 12.7552C9.74741 12.7552 9.75229 12.7547 9.75852 12.7542C9.83341 12.7489 9.90241 12.7088 9.94321 12.6455L16.3801 2.69484C16.4521 2.58348 16.4202 2.43591 16.3088 2.36391C16.2815 2.34603 16.2522 2.33371 16.2217 2.32828Z" fill="#1E1E70"/>
</svg>
