<svg width="17" height="17" viewBox="0 0 17 17" fill="none" xmlns="http://www.w3.org/2000/svg">
<path d="M4.88007 0.819824C3.95367 0.819824 3.20007 1.57342 3.20007 2.49982V8.49982H2.00007C1.07367 8.49982 0.320068 9.25342 0.320068 10.1798V15.9398C0.320068 16.0723 0.427588 16.1798 0.560068 16.1798C0.692548 16.1798 0.800068 16.0723 0.800068 15.9398V10.1798C0.800068 9.51838 1.33815 8.97982 2.00007 8.97982H8.00007V15.9398C8.00007 16.0723 8.10759 16.1798 8.24007 16.1798C8.37255 16.1798 8.48007 16.0723 8.48007 15.9398V7.77982C8.48007 7.11838 9.01815 6.57982 9.68007 6.57982H14.4801C15.142 6.57982 15.6801 7.11838 15.6801 7.77982V15.9398C15.6801 16.0723 15.7876 16.1798 15.9201 16.1798C16.0525 16.1798 16.1601 16.0723 16.1601 15.9398V7.77982C16.1601 6.85342 15.4065 6.09982 14.4801 6.09982H11.3601V2.49982C11.3601 1.57342 10.6065 0.819824 9.68007 0.819824H4.88007ZM4.88007 1.29982H9.68007C10.342 1.29982 10.8801 1.83838 10.8801 2.49982V6.09982H9.68007C8.75367 6.09982 8.00007 6.85342 8.00007 7.77982V8.49982H3.68007V2.49982C3.68007 1.83838 4.21815 1.29982 4.88007 1.29982ZM5.60007 3.21982C5.33511 3.21982 5.12007 3.43486 5.12007 3.69982V4.17982C5.12007 4.44478 5.33511 4.65982 5.60007 4.65982H6.08007C6.34503 4.65982 6.56007 4.44478 6.56007 4.17982V3.69982C6.56007 3.43486 6.34503 3.21982 6.08007 3.21982H5.60007ZM8.48007 3.21982C8.21511 3.21982 8.00007 3.43486 8.00007 3.69982V4.17982C8.00007 4.44478 8.21511 4.65982 8.48007 4.65982H8.96007C9.22503 4.65982 9.44007 4.44478 9.44007 4.17982V3.69982C9.44007 3.43486 9.22503 3.21982 8.96007 3.21982H8.48007ZM5.60007 5.61982C5.33511 5.61982 5.12007 5.83486 5.12007 6.09982V6.57982C5.12007 6.84478 5.33511 7.05982 5.60007 7.05982H6.08007C6.34503 7.05982 6.56007 6.84478 6.56007 6.57982V6.09982C6.56007 5.83486 6.34503 5.61982 6.08007 5.61982H5.60007ZM10.4001 8.49982C10.1351 8.49982 9.92007 8.71486 9.92007 8.97982V9.45982C9.92007 9.72478 10.1351 9.93982 10.4001 9.93982H10.8801C11.145 9.93982 11.3601 9.72478 11.3601 9.45982V8.97982C11.3601 8.71486 11.145 8.49982 10.8801 8.49982H10.4001ZM13.2801 8.49982C13.0151 8.49982 12.8001 8.71486 12.8001 8.97982V9.45982C12.8001 9.72478 13.0151 9.93982 13.2801 9.93982H13.7601C14.025 9.93982 14.2401 9.72478 14.2401 9.45982V8.97982C14.2401 8.71486 14.025 8.49982 13.7601 8.49982H13.2801ZM2.72007 10.8998C2.45511 10.8998 2.24007 11.1149 2.24007 11.3798V11.8598C2.24007 12.1248 2.45511 12.3398 2.72007 12.3398H3.20007C3.46503 12.3398 3.68007 12.1248 3.68007 11.8598V11.3798C3.68007 11.1149 3.46503 10.8998 3.20007 10.8998H2.72007ZM5.60007 10.8998C5.33511 10.8998 5.12007 11.1149 5.12007 11.3798V11.8598C5.12007 12.1248 5.33511 12.3398 5.60007 12.3398H6.08007C6.34503 12.3398 6.56007 12.1248 6.56007 11.8598V11.3798C6.56007 11.1149 6.34503 10.8998 6.08007 10.8998H5.60007ZM10.4001 10.8998C10.1351 10.8998 9.92007 11.1149 9.92007 11.3798V11.8598C9.92007 12.1248 10.1351 12.3398 10.4001 12.3398H10.8801C11.145 12.3398 11.3601 12.1248 11.3601 11.8598V11.3798C11.3601 11.1149 11.145 10.8998 10.8801 10.8998H10.4001ZM13.2801 10.8998C13.0151 10.8998 12.8001 11.1149 12.8001 11.3798V11.8598C12.8001 12.1248 13.0151 12.3398 13.2801 12.3398H13.7601C14.025 12.3398 14.2401 12.1248 14.2401 11.8598V11.3798C14.2401 11.1149 14.025 10.8998 13.7601 10.8998H13.2801ZM2.72007 13.2998C2.45511 13.2998 2.24007 13.5149 2.24007 13.7798V14.2598C2.24007 14.5248 2.45511 14.7398 2.72007 14.7398H3.20007C3.46503 14.7398 3.68007 14.5248 3.68007 14.2598V13.7798C3.68007 13.5149 3.46503 13.2998 3.20007 13.2998H2.72007ZM5.60007 13.2998C5.33511 13.2998 5.12007 13.5149 5.12007 13.7798V14.2598C5.12007 14.5248 5.33511 14.7398 5.60007 14.7398H6.08007C6.34503 14.7398 6.56007 14.5248 6.56007 14.2598V13.7798C6.56007 13.5149 6.34503 13.2998 6.08007 13.2998H5.60007ZM10.4001 13.2998C10.1351 13.2998 9.92007 13.5149 9.92007 13.7798V14.2598C9.92007 14.5248 10.1351 14.7398 10.4001 14.7398H10.8801C11.145 14.7398 11.3601 14.5248 11.3601 14.2598V13.7798C11.3601 13.5149 11.145 13.2998 10.8801 13.2998H10.4001ZM13.2801 13.2998C13.0151 13.2998 12.8001 13.5149 12.8001 13.7798V14.2598C12.8001 14.5248 13.0151 14.7398 13.2801 14.7398H13.7601C14.025 14.7398 14.2401 14.5248 14.2401 14.2598V13.7798C14.2401 13.5149 14.025 13.2998 13.7601 13.2998H13.2801Z" fill="#1E1E70"/>
</svg>
