<svg width="18" height="17" viewBox="0 0 18 17" fill="none" xmlns="http://www.w3.org/2000/svg">
<path d="M9.00009 0.339844C4.50057 0.339844 0.840088 4.00032 0.840088 8.49984C0.840088 12.9994 4.50057 16.6598 9.00009 16.6598C13.4996 16.6598 17.1601 12.9994 17.1601 8.49984C17.1601 4.00032 13.4996 0.339844 9.00009 0.339844ZM9.00009 0.819844C9.8802 0.819844 10.7226 0.976335 11.5107 1.25016L9.88415 5.26172C9.60195 5.18456 9.30644 5.13984 9.00009 5.13984C7.14729 5.13984 5.64009 6.64704 5.64009 8.49984C5.64009 10.3526 7.14729 11.8598 9.00009 11.8598C9.39149 11.8598 9.76611 11.7894 10.1157 11.6658L12.1295 15.5067C11.1725 15.9359 10.1149 16.1798 9.00009 16.1798C4.76553 16.1798 1.32009 12.7344 1.32009 8.49984C1.32009 4.26528 4.76553 0.819844 9.00009 0.819844ZM11.9616 1.41516C14.0029 2.27159 15.5942 3.98653 16.292 6.10453L12.1557 7.35609C11.8404 6.48879 11.1801 5.78724 10.3388 5.42016L11.9616 1.41516ZM9.00009 5.61984C10.5884 5.61984 11.8801 6.91152 11.8801 8.49984C11.8801 10.0882 10.5884 11.3798 9.00009 11.3798C7.41177 11.3798 6.12009 10.0882 6.12009 8.49984C6.12009 6.91152 7.41177 5.61984 9.00009 5.61984ZM16.4232 6.56578C16.5848 7.185 16.6801 7.83074 16.6801 8.49984C16.6801 11.4491 15.0059 14.0114 12.5607 15.2977L10.5573 11.4745C11.6275 10.912 12.3601 9.79063 12.3601 8.49984C12.3601 8.26555 12.3356 8.03729 12.2898 7.81641L16.4232 6.56578Z" fill="#1E1E70"/>
</svg>
