<svg width="16" height="15" viewBox="0 0 16 15" fill="none" xmlns="http://www.w3.org/2000/svg">
<path d="M1.76007 0.299805C0.964708 0.299805 0.320068 0.944445 0.320068 1.7398V13.2598C0.320068 14.0552 0.964708 14.6998 1.76007 14.6998H14.2401C15.0354 14.6998 15.6801 14.0552 15.6801 13.2598V1.7398C15.6801 0.944445 15.0354 0.299805 14.2401 0.299805H1.76007ZM1.76007 3.6598H14.2401C14.7705 3.6598 15.2001 4.0894 15.2001 4.6198V13.2598C15.2001 13.7902 14.7705 14.2198 14.2401 14.2198H1.76007C1.22967 14.2198 0.800068 13.7902 0.800068 13.2598V4.6198C0.800068 4.0894 1.22967 3.6598 1.76007 3.6598ZM6.32007 5.5798C6.18759 5.5798 6.08007 5.68732 6.08007 5.8198V6.2998C6.08007 6.43228 6.18759 6.5398 6.32007 6.5398H6.80007C6.93255 6.5398 7.04007 6.43228 7.04007 6.2998V5.8198C7.04007 5.68732 6.93255 5.5798 6.80007 5.5798H6.32007ZM9.20007 5.5798C9.06759 5.5798 8.96007 5.68732 8.96007 5.8198V6.2998C8.96007 6.43228 9.06759 6.5398 9.20007 6.5398H9.68007C9.81255 6.5398 9.92007 6.43228 9.92007 6.2998V5.8198C9.92007 5.68732 9.81255 5.5798 9.68007 5.5798H9.20007ZM12.0801 5.5798C11.9476 5.5798 11.8401 5.68732 11.8401 5.8198V6.2998C11.8401 6.43228 11.9476 6.5398 12.0801 6.5398H12.5601C12.6925 6.5398 12.8001 6.43228 12.8001 6.2998V5.8198C12.8001 5.68732 12.6925 5.5798 12.5601 5.5798H12.0801ZM3.44007 8.4598C3.30759 8.4598 3.20007 8.56732 3.20007 8.6998V9.1798C3.20007 9.31228 3.30759 9.4198 3.44007 9.4198H3.92007C4.05255 9.4198 4.16007 9.31228 4.16007 9.1798V8.6998C4.16007 8.56732 4.05255 8.4598 3.92007 8.4598H3.44007ZM6.32007 8.4598C6.18759 8.4598 6.08007 8.56732 6.08007 8.6998V9.1798C6.08007 9.31228 6.18759 9.4198 6.32007 9.4198H6.80007C6.93255 9.4198 7.04007 9.31228 7.04007 9.1798V8.6998C7.04007 8.56732 6.93255 8.4598 6.80007 8.4598H6.32007ZM9.20007 8.4598C9.06759 8.4598 8.96007 8.56732 8.96007 8.6998V9.1798C8.96007 9.31228 9.06759 9.4198 9.20007 9.4198H9.68007C9.81255 9.4198 9.92007 9.31228 9.92007 9.1798V8.6998C9.92007 8.56732 9.81255 8.4598 9.68007 8.4598H9.20007ZM12.0801 8.4598C11.9476 8.4598 11.8401 8.56732 11.8401 8.6998V9.1798C11.8401 9.31228 11.9476 9.4198 12.0801 9.4198H12.5601C12.6925 9.4198 12.8001 9.31228 12.8001 9.1798V8.6998C12.8001 8.56732 12.6925 8.4598 12.5601 8.4598H12.0801ZM3.44007 11.3398C3.30759 11.3398 3.20007 11.4473 3.20007 11.5798V12.0598C3.20007 12.1923 3.30759 12.2998 3.44007 12.2998H3.92007C4.05255 12.2998 4.16007 12.1923 4.16007 12.0598V11.5798C4.16007 11.4473 4.05255 11.3398 3.92007 11.3398H3.44007ZM6.32007 11.3398C6.18759 11.3398 6.08007 11.4473 6.08007 11.5798V12.0598C6.08007 12.1923 6.18759 12.2998 6.32007 12.2998H6.80007C6.93255 12.2998 7.04007 12.1923 7.04007 12.0598V11.5798C7.04007 11.4473 6.93255 11.3398 6.80007 11.3398H6.32007ZM9.20007 11.3398C9.06759 11.3398 8.96007 11.4473 8.96007 11.5798V12.0598C8.96007 12.1923 9.06759 12.2998 9.20007 12.2998H9.68007C9.81255 12.2998 9.92007 12.1923 9.92007 12.0598V11.5798C9.92007 11.4473 9.81255 11.3398 9.68007 11.3398H9.20007Z" fill="#1E1E70"/>
</svg>
