<svg width="16" height="16" viewBox="0 0 16 16" fill="none" xmlns="http://www.w3.org/2000/svg">
<g clip-path="url(#clip0_779:10292)">
<path d="M4.66667 14.6667H3.33333C2.8029 14.6667 2.29419 14.456 1.91912 14.0809C1.54405 13.7058 1.33333 13.1971 1.33333 12.6667V3.33333C1.33333 2.8029 1.54405 2.29419 1.91912 1.91912C2.29419 1.54405 2.8029 1.33333 3.33333 1.33333H4.66667C4.84348 1.33333 5.01305 1.2631 5.13807 1.13807C5.2631 1.01305 5.33333 0.843478 5.33333 0.666667C5.33333 0.489856 5.2631 0.320286 5.13807 0.195262C5.01305 0.0702379 4.84348 0 4.66667 0L3.33333 0C2.4496 0.00105857 1.60237 0.352588 0.97748 0.97748C0.352588 1.60237 0.00105857 2.4496 0 3.33333L0 12.6667C0.00105857 13.5504 0.352588 14.3976 0.97748 15.0225C1.60237 15.6474 2.4496 15.9989 3.33333 16H4.66667C4.84348 16 5.01305 15.9298 5.13807 15.8047C5.2631 15.6797 5.33333 15.5101 5.33333 15.3333C5.33333 15.1565 5.2631 14.987 5.13807 14.8619C5.01305 14.7369 4.84348 14.6667 4.66667 14.6667Z" fill="#4A4A50"/>
<path d="M12.3587 12.4714L15.4167 9.41403C15.7905 9.03837 16.0004 8.52998 16.0004 8.00003C16.0004 7.47008 15.7905 6.96169 15.4167 6.58603L12.3587 3.52869C12.233 3.40726 12.0646 3.34006 11.8898 3.34158C11.715 3.3431 11.5478 3.41321 11.4242 3.53682C11.3006 3.66042 11.2304 3.82763 11.2289 4.00243C11.2274 4.17722 11.2946 4.34563 11.416 4.47136L14.2774 7.33336H4.00004C3.82323 7.33336 3.65366 7.4036 3.52864 7.52862C3.40361 7.65365 3.33337 7.82322 3.33337 8.00003C3.33337 8.17684 3.40361 8.34641 3.52864 8.47143C3.65366 8.59646 3.82323 8.66669 4.00004 8.66669H14.278L11.416 11.5287C11.3524 11.5902 11.3016 11.6638 11.2666 11.7451C11.2317 11.8264 11.2133 11.9139 11.2125 12.0024C11.2118 12.0909 11.2286 12.1787 11.2622 12.2607C11.2957 12.3426 11.3452 12.417 11.4078 12.4796C11.4704 12.5422 11.5448 12.5917 11.6267 12.6252C11.7087 12.6588 11.7965 12.6756 11.885 12.6749C11.9735 12.6741 12.061 12.6557 12.1423 12.6208C12.2236 12.5858 12.2972 12.535 12.3587 12.4714Z" fill="#4A4A50"/>
</g>
<defs>
<clipPath id="clip0_779:10292">
<rect width="16" height="16" fill="white"/>
</clipPath>
</defs>
</svg>
