<svg width="18" height="17" viewBox="0 0 18 17" fill="none" xmlns="http://www.w3.org/2000/svg">
<path d="M9.00008 0.339844C6.08888 0.339844 3.72008 2.70864 3.72008 5.61984C3.72008 7.88096 5.53494 10.2816 7.00696 11.8598H3.52883C3.15011 11.8598 2.79371 12.0613 2.59883 12.3858L0.940394 15.1505C0.812714 15.3636 0.810037 15.6188 0.931957 15.8348C1.05388 16.0504 1.27442 16.1798 1.52258 16.1798H16.4776C16.7257 16.1798 16.9472 16.0504 17.0691 15.8348C17.1911 15.6188 17.1884 15.3631 17.0607 15.1505L15.4023 12.3858C15.2069 12.0613 14.851 11.8598 14.4723 11.8598H11.6898L11.1816 12.3398H14.4723C14.683 12.3398 14.8813 12.4518 14.9898 12.6333L16.6491 15.398C16.7029 15.4877 16.6683 15.5684 16.651 15.5986C16.6342 15.6288 16.5827 15.6998 16.4776 15.6998H1.52258C1.41746 15.6998 1.36594 15.6293 1.34914 15.5986C1.33186 15.5684 1.2982 15.4882 1.35196 15.398L3.01039 12.6333C3.11887 12.4523 3.31811 12.3398 3.52883 12.3398H7.47477C8.20098 13.0724 8.77964 13.5692 8.84727 13.6252C8.89191 13.6621 8.94584 13.6805 9.00008 13.6805C9.05432 13.6805 9.10826 13.6621 9.15289 13.6252C9.36217 13.4519 14.2801 9.33984 14.2801 5.61984C14.2801 2.70864 11.9113 0.339844 9.00008 0.339844ZM9.00008 0.819844C11.6468 0.819844 13.8001 2.97312 13.8001 5.61984C13.8001 8.76144 9.83576 12.394 9.00008 13.1245C8.1644 12.394 4.20008 8.76144 4.20008 5.61984C4.20008 2.97312 6.35336 0.819844 9.00008 0.819844ZM9.00008 4.65984C8.46968 4.65984 8.04008 5.08944 8.04008 5.61984C8.04008 6.15024 8.46968 6.57984 9.00008 6.57984C9.53048 6.57984 9.96008 6.15024 9.96008 5.61984C9.96008 5.08944 9.53048 4.65984 9.00008 4.65984Z" fill="#1E1E70"/>
</svg>
