<svg width="18" height="17" viewBox="0 0 18 17" fill="none" xmlns="http://www.w3.org/2000/svg">
<path d="M9.77623 0.339844C9.32743 0.339844 8.90569 0.514751 8.58841 0.832031L1.43716 7.98328C1.04356 8.37736 0.845692 8.89365 0.841852 9.41109C0.838012 9.93861 1.03588 10.4667 1.43716 10.868L6.63185 16.0627C7.02929 16.4606 7.55242 16.6589 8.07466 16.6589C8.5969 16.6589 9.11862 16.4606 9.51654 16.0627L16.6678 8.91141C16.9851 8.59413 17.16 8.17239 17.16 7.72359V4.28766C17.16 3.83886 16.9851 3.41664 16.6678 3.09984L14.4009 0.832031C14.0836 0.514751 13.661 0.339844 13.2122 0.339844H9.77623ZM9.77623 0.819844H13.2122C13.5328 0.819844 13.8345 0.944846 14.0615 1.17141L16.3284 3.43828C16.555 3.66532 16.68 3.96702 16.68 4.28766V7.72359C16.68 8.04423 16.555 8.34547 16.3284 8.57203L9.1781 15.7233C8.8757 16.0252 8.47912 16.177 8.08216 16.1789C7.67992 16.1808 7.27747 16.029 6.97123 15.7233L1.77654 10.5286C1.47318 10.2248 1.32139 9.82591 1.32091 9.42703C1.32043 9.02719 1.47222 8.62698 1.77654 8.32266L8.92779 1.17141C9.15435 0.944846 9.45559 0.819844 9.77623 0.819844ZM12.6 4.17984C12.2025 4.17984 11.88 4.5024 11.88 4.89984C11.88 5.29728 12.2025 5.61984 12.6 5.61984C12.9974 5.61984 13.32 5.29728 13.32 4.89984C13.32 4.5024 12.9974 4.17984 12.6 4.17984Z" fill="#1E1E70"/>
</svg>
