<svg width="20" height="14" viewBox="0 0 20 14" fill="none" xmlns="http://www.w3.org/2000/svg">
<path d="M13.84 0.740234C12.3841 0.740234 11.2 2.03191 11.2 3.62023C11.2 5.20855 12.3841 6.50023 13.84 6.50023C15.2958 6.50023 16.48 5.20855 16.48 3.62023C16.48 2.03191 15.2958 0.740234 13.84 0.740234ZM13.84 1.22023C15.0309 1.22023 16 2.29687 16 3.62023C16 4.94359 15.0309 6.02023 13.84 6.02023C12.6491 6.02023 11.68 4.94359 11.68 3.62023C11.68 2.29687 12.6491 1.22023 13.84 1.22023ZM6.15998 2.18023C4.70414 2.18023 3.51998 3.47191 3.51998 5.06023C3.51998 6.64855 4.70414 7.94023 6.15998 7.94023C7.61582 7.94023 8.79998 6.64855 8.79998 5.06023C8.79998 3.47191 7.61582 2.18023 6.15998 2.18023ZM6.15998 2.66023C7.35086 2.66023 8.31998 3.73687 8.31998 5.06023C8.31998 6.38359 7.35086 7.46023 6.15998 7.46023C4.9691 7.46023 3.99998 6.38359 3.99998 5.06023C3.99998 3.73687 4.9691 2.66023 6.15998 2.66023ZM13.84 7.46023C11.8917 7.46023 10.1396 8.25658 9.07373 9.54523C8.21018 9.13067 7.21222 8.90023 6.15998 8.90023C3.75662 8.90023 1.63514 10.1003 0.755295 11.9584C0.415455 12.6745 0.884663 13.7002 1.88498 13.7002H10.435C11.2688 13.7002 11.7748 12.9491 11.6584 12.2602H18.115C19.1158 12.2602 19.5845 11.2345 19.2447 10.5184C18.3648 8.66028 16.2433 7.46023 13.84 7.46023ZM13.84 7.94023C16.0245 7.94023 18.0224 9.05903 18.8106 10.7237C19.0688 11.2694 18.5955 11.7802 18.115 11.7802H11.4709C11.0356 10.9574 10.3531 10.274 9.50967 9.77961C10.4959 8.65383 12.1036 7.94023 13.84 7.94023ZM6.15998 9.38023C8.34446 9.38023 10.3424 10.499 11.1306 12.1637C11.3826 12.6965 10.9279 13.2202 10.435 13.2202H1.88498C1.4045 13.2202 0.931118 12.7094 1.18936 12.1637C1.97752 10.499 3.9755 9.38023 6.15998 9.38023Z" fill="#1E1E70"/>
</svg>
