<svg width="10" height="10" viewBox="0 0 10 10" fill="none" xmlns="http://www.w3.org/2000/svg">
<path d="M8.99524 0.994996C8.87022 0.870015 8.70068 0.799805 8.52391 0.799805C8.34713 0.799805 8.17759 0.870015 8.05257 0.994996L4.99524 4.05233L1.93791 0.994996C1.81289 0.870015 1.64335 0.799805 1.46657 0.799805C1.2898 0.799805 1.12026 0.870015 0.99524 0.994996C0.870259 1.12001 0.800049 1.28955 0.800049 1.46633C0.800049 1.6431 0.870259 1.81264 0.99524 1.93766L4.05257 4.995L0.99524 8.05233C0.870259 8.17735 0.800049 8.34689 0.800049 8.52366C0.800049 8.70044 0.870259 8.86998 0.99524 8.995C1.12026 9.11998 1.2898 9.19019 1.46657 9.19019C1.64335 9.19019 1.81289 9.11998 1.93791 8.995L4.99524 5.93766L8.05257 8.995C8.17759 9.11998 8.34713 9.19019 8.52391 9.19019C8.70068 9.19019 8.87022 9.11998 8.99524 8.995C9.12022 8.86998 9.19043 8.70044 9.19043 8.52366C9.19043 8.34689 9.12022 8.17735 8.99524 8.05233L5.93791 4.995L8.99524 1.93766C9.12022 1.81264 9.19043 1.6431 9.19043 1.46633C9.19043 1.28955 9.12022 1.12001 8.99524 0.994996Z" fill="#1E1E70"/>
</svg>
