<svg width="16" height="15" viewBox="0 0 16 15" fill="none" xmlns="http://www.w3.org/2000/svg">
<path d="M15.5176 0.223589C15.5045 0.226865 15.4914 0.231779 15.4783 0.236694C15.3685 0.264542 15.2735 0.334981 15.2162 0.433268L6.64554 13.7217L0.748302 8.4011C0.6451 8.27005 0.473097 8.21271 0.310923 8.2553C0.148749 8.29789 0.0291661 8.43386 0.00459455 8.59931C-0.0199774 8.76476 0.055376 8.92857 0.197893 9.01703L6.44897 14.6784C6.5407 14.7586 6.66356 14.7947 6.78478 14.7767C6.906 14.7586 7.01248 14.6898 7.07801 14.5866L15.9239 0.878838C16.0205 0.741235 16.0254 0.559404 15.937 0.416888C15.8485 0.274371 15.6831 0.199017 15.5176 0.223589Z" fill="#1E1E70"/>
</svg>
