<svg width="16" height="16" viewBox="0 0 16 16" fill="none" xmlns="http://www.w3.org/2000/svg">
<path d="M1.33333 9.33335C2.06971 9.33335 2.66667 8.7364 2.66667 8.00002C2.66667 7.26364 2.06971 6.66669 1.33333 6.66669C0.596954 6.66669 0 7.26364 0 8.00002C0 8.7364 0.596954 9.33335 1.33333 9.33335Z" fill="#4C4CA0"/>
<path d="M7.99996 9.33335C8.73634 9.33335 9.33329 8.7364 9.33329 8.00002C9.33329 7.26364 8.73634 6.66669 7.99996 6.66669C7.26358 6.66669 6.66663 7.26364 6.66663 8.00002C6.66663 8.7364 7.26358 9.33335 7.99996 9.33335Z" fill="#4C4CA0"/>
<path d="M14.6667 9.33335C15.4031 9.33335 16 8.7364 16 8.00002C16 7.26364 15.4031 6.66669 14.6667 6.66669C13.9303 6.66669 13.3334 7.26364 13.3334 8.00002C13.3334 8.7364 13.9303 9.33335 14.6667 9.33335Z" fill="#4C4CA0"/>
</svg>
