<svg width="12" height="7" viewBox="0 0 12 7" fill="none" xmlns="http://www.w3.org/2000/svg">
<path d="M11.5893 0.839203C11.433 0.682977 11.2211 0.595215 11.0001 0.595215C10.7791 0.595215 10.5672 0.682977 10.4109 0.839203L6.58926 4.66087C6.43082 4.81294 6.21971 4.89786 6.00009 4.89786C5.78048 4.89786 5.56937 4.81294 5.41093 4.66087L1.58926 0.839203C1.43209 0.687405 1.22159 0.60341 1.00309 0.605308C0.784597 0.607207 0.575587 0.694848 0.42108 0.849354C0.266573 1.00386 0.178932 1.21287 0.177033 1.43137C0.175135 1.64987 0.25913 1.86037 0.410929 2.01754L4.23176 5.8392C4.46391 6.07139 4.73953 6.25558 5.04287 6.38124C5.34621 6.50691 5.67134 6.57159 5.99968 6.57159C6.32802 6.57159 6.65314 6.50691 6.95648 6.38124C7.25983 6.25558 7.53544 6.07139 7.7676 5.8392L11.5893 2.01754C11.7455 1.86126 11.8333 1.64934 11.8333 1.42837C11.8333 1.2074 11.7455 0.995476 11.5893 0.839203Z" fill="#1E1E70"/>
</svg>
