<svg width="10" height="11" viewBox="0 0 10 11" fill="none" xmlns="http://www.w3.org/2000/svg">
<path d="M4.5 4.575L4.05 4.1375C3.95 4.04583 3.83117 4.002 3.6935 4.006C3.55617 4.01033 3.44167 4.05833 3.35 4.15C3.25833 4.24167 3.2125 4.35833 3.2125 4.5C3.2125 4.64167 3.25833 4.75833 3.35 4.85L4.65 6.15C4.75 6.25 4.86667 6.3 5 6.3C5.13333 6.3 5.25 6.25 5.35 6.15L6.6625 4.8375C6.75417 4.74583 6.798 4.63117 6.794 4.4935C6.78967 4.35617 6.74167 4.24167 6.65 4.15C6.55833 4.05833 6.44383 4.0125 6.3065 4.0125C6.16883 4.0125 6.05 4.05833 5.95 4.15L5.5 4.575V2.9875C5.5 2.84583 5.45217 2.72917 5.3565 2.6375C5.2605 2.54583 5.14167 2.5 5 2.5C4.85833 2.5 4.73967 2.54783 4.644 2.6435C4.548 2.7395 4.5 2.85833 4.5 3V4.575ZM3 8H7.0125C7.15417 8 7.27083 7.952 7.3625 7.856C7.45417 7.76033 7.5 7.64167 7.5 7.5C7.5 7.35833 7.452 7.2395 7.356 7.1435C7.26033 7.04783 7.14167 7 7 7H2.9875C2.84583 7 2.72917 7.04783 2.6375 7.1435C2.54583 7.2395 2.5 7.35833 2.5 7.5C2.5 7.64167 2.54783 7.76033 2.6435 7.856C2.7395 7.952 2.85833 8 3 8ZM5 10.5C4.30833 10.5 3.65833 10.3687 3.05 10.106C2.44167 9.84367 1.9125 9.4875 1.4625 9.0375C1.0125 8.5875 0.656333 8.05833 0.394 7.45C0.131333 6.84167 0 6.19167 0 5.5C0 4.80833 0.131333 4.15833 0.394 3.55C0.656333 2.94167 1.0125 2.4125 1.4625 1.9625C1.9125 1.5125 2.44167 1.15617 3.05 0.8935C3.65833 0.631167 4.30833 0.5 5 0.5C5.69167 0.5 6.34167 0.631167 6.95 0.8935C7.55833 1.15617 8.0875 1.5125 8.5375 1.9625C8.9875 2.4125 9.34367 2.94167 9.606 3.55C9.86867 4.15833 10 4.80833 10 5.5C10 6.19167 9.86867 6.84167 9.606 7.45C9.34367 8.05833 8.9875 8.5875 8.5375 9.0375C8.0875 9.4875 7.55833 9.84367 6.95 10.106C6.34167 10.3687 5.69167 10.5 5 10.5ZM5 9.5C6.10833 9.5 7.05217 9.1105 7.8315 8.3315C8.6105 7.55217 9 6.60833 9 5.5C9 4.39167 8.6105 3.44783 7.8315 2.6685C7.05217 1.8895 6.10833 1.5 5 1.5C3.89167 1.5 2.948 1.8895 2.169 2.6685C1.38967 3.44783 1 4.39167 1 5.5C1 6.60833 1.38967 7.55217 2.169 8.3315C2.948 9.1105 3.89167 9.5 5 9.5Z" fill="#1E1E70"/>
</svg>
