<svg width="16" height="17" viewBox="0 0 16 17" fill="none" xmlns="http://www.w3.org/2000/svg">
<path d="M14.3082 0.497803C13.8747 0.497803 13.4425 0.667681 13.1122 0.997925L12.8296 1.2806L15.2214 3.67249C15.2201 3.67385 15.5041 3.38981 15.5041 3.38981C16.166 2.72797 16.1646 1.65841 15.5041 0.997925C15.1725 0.667681 14.7417 0.497803 14.3082 0.497803ZM12.2968 1.90032C12.218 1.91119 12.1446 1.9506 12.0902 2.00904L0.804878 13.3053C0.76003 13.3461 0.726054 13.3991 0.707028 13.4575L0.0112053 16.0668C-0.0200524 16.1864 0.0152825 16.3128 0.10226 16.3998C0.189238 16.4868 0.315628 16.5221 0.435222 16.4908L3.04456 15.795C3.10299 15.776 3.156 15.742 3.19677 15.6972L14.493 4.4118C14.6316 4.27726 14.633 4.05574 14.4984 3.91712C14.3639 3.7785 14.1424 3.77714 14.0038 3.91168L2.77275 15.1427L1.35936 13.7293L12.5904 2.49829C12.695 2.39772 12.7263 2.24144 12.6678 2.10825C12.6094 1.97507 12.4749 1.89217 12.3294 1.90032C12.3186 1.90032 12.3077 1.90032 12.2968 1.90032Z" fill="black"/>
</svg>
