<svg width="16" height="16" viewBox="0 0 16 16" fill="none" xmlns="http://www.w3.org/2000/svg">
<path fill-rule="evenodd" clip-rule="evenodd" d="M11.8489 10.6046C11.5554 10.614 11.3251 10.3838 11.3346 10.0903L11.4871 5.36045L6.75735 5.51303C6.46382 5.5225 6.23355 5.29223 6.24302 4.99871C6.25249 4.70518 6.49811 4.45956 6.79163 4.45009L12.0529 4.28037C12.3464 4.2709 12.5767 4.50118 12.5672 4.7947L12.3975 10.056C12.388 10.3495 12.1424 10.5951 11.8489 10.6046Z" fill="#1E1E70"/>
<path fill-rule="evenodd" clip-rule="evenodd" d="M11.9524 4.89534C12.2128 5.15569 12.2128 5.5778 11.9524 5.83815L5.35276 12.4378C5.09241 12.6982 4.6703 12.6982 4.40995 12.4378C4.1496 12.1775 4.1496 11.7554 4.40995 11.495L11.0096 4.89534C11.27 4.63499 11.6921 4.63499 11.9524 4.89534Z" fill="#1E1E70"/>
</svg>
