<svg width="10" height="5" viewBox="0 0 10 5" fill="none" xmlns="http://www.w3.org/2000/svg">
<path d="M9.00003 4.83329C8.82323 4.83325 8.65369 4.76299 8.52869 4.63795L5.47136 1.58062C5.34461 1.45896 5.17572 1.39102 5.00003 1.39102C4.82434 1.39102 4.65545 1.45896 4.52869 1.58062L1.47136 4.63795C1.34563 4.75939 1.17722 4.82659 1.00243 4.82507C0.827629 4.82355 0.660421 4.75344 0.536815 4.62983C0.41321 4.50623 0.343097 4.33902 0.341578 4.16422C0.340059 3.98942 0.407256 3.82102 0.528694 3.69529L3.58603 0.637952C3.96711 0.274303 4.47361 0.0714111 5.00036 0.0714111C5.52711 0.0714111 6.03361 0.274303 6.41469 0.637952L9.47136 3.69529C9.56457 3.78852 9.62804 3.9073 9.65375 4.0366C9.67946 4.1659 9.66626 4.29992 9.61581 4.42172C9.56537 4.54352 9.47994 4.64763 9.37033 4.72089C9.26073 4.79414 9.13186 4.83326 9.00003 4.83329Z" fill="#4A4A50"/>
</svg>
