<svg width="16" height="16" viewBox="0 0 16 16" fill="none" xmlns="http://www.w3.org/2000/svg">
<path d="M7.83325 0.666672C5.34888 0.666672 3.33325 2.58511 3.33325 4.94792C3.33325 7.66667 6.33325 11.9751 7.43481 13.4632C7.48054 13.5261 7.54047 13.5772 7.60971 13.6124C7.67896 13.6477 7.75555 13.666 7.83325 13.666C7.91095 13.666 7.98755 13.6477 8.05679 13.6124C8.12603 13.5772 8.18596 13.5261 8.23169 13.4632C9.33325 11.9757 12.3333 7.66886 12.3333 4.94792C12.3333 2.58511 10.3176 0.666672 7.83325 0.666672Z" stroke="#1E1E70" stroke-linecap="round" stroke-linejoin="round"/>
<path d="M7.83325 6.66667C8.66168 6.66667 9.33325 5.9951 9.33325 5.16667C9.33325 4.33824 8.66168 3.66667 7.83325 3.66667C7.00482 3.66667 6.33325 4.33824 6.33325 5.16667C6.33325 5.9951 7.00482 6.66667 7.83325 6.66667Z" stroke="#1E1E70" stroke-linecap="round" stroke-linejoin="round"/>
</svg>
