<svg width="8" height="9" viewBox="0 0 8 9" fill="none" xmlns="http://www.w3.org/2000/svg">
<path d="M7.33333 3.83333H4.66667V1.16667C4.66667 0.989856 4.59643 0.820287 4.4714 0.695262C4.34638 0.570238 4.17681 0.5 4 0.5C3.82319 0.5 3.65362 0.570238 3.5286 0.695262C3.40357 0.820287 3.33333 0.989856 3.33333 1.16667V3.83333H0.666667C0.489856 3.83333 0.320287 3.90357 0.195262 4.0286C0.070238 4.15362 0 4.32319 0 4.5C0 4.67681 0.070238 4.84638 0.195262 4.9714C0.320287 5.09643 0.489856 5.16667 0.666667 5.16667H3.33333V7.83333C3.33333 8.01014 3.40357 8.17971 3.5286 8.30474C3.65362 8.42976 3.82319 8.5 4 8.5C4.17681 8.5 4.34638 8.42976 4.4714 8.30474C4.59643 8.17971 4.66667 8.01014 4.66667 7.83333V5.16667H7.33333C7.51014 5.16667 7.67971 5.09643 7.80474 4.9714C7.92976 4.84638 8 4.67681 8 4.5C8 4.32319 7.92976 4.15362 7.80474 4.0286C7.67971 3.90357 7.51014 3.83333 7.33333 3.83333Z" fill="#1E1E70"/>
</svg>
