<svg width="12" height="12" viewBox="0 0 12 12" fill="none" xmlns="http://www.w3.org/2000/svg">
<path d="M8.33904 7.46451C8.9442 6.6386 9.21524 5.61462 9.09795 4.59743C8.98065 3.58024 8.48366 2.64485 7.70641 1.9784C6.92916 1.31195 5.92897 0.963591 4.90594 1.00302C3.8829 1.04244 2.91248 1.46674 2.18881 2.19103C1.46514 2.91532 1.04159 3.88619 1.0029 4.90939C0.964217 5.9326 1.31324 6.93268 1.98015 7.70956C2.64707 8.48645 3.58268 8.98283 4.59981 9.09942C5.61695 9.216 6.64059 8.94419 7.46594 8.33835H7.46532C7.48407 8.36335 7.50407 8.3871 7.52657 8.41023L9.93272 10.8167C10.0499 10.934 10.2089 10.9999 10.3747 11C10.5405 11.0001 10.6995 10.9342 10.8168 10.817C10.934 10.6998 10.9999 10.5408 11 10.375C11.0001 10.2092 10.9343 10.0502 10.8171 9.93289L8.41091 7.52639C8.38856 7.50377 8.36454 7.48287 8.33904 7.46388V7.46451ZM8.50028 5.06176C8.50028 5.51323 8.41137 5.96027 8.23863 6.37737C8.06588 6.79447 7.81269 7.17346 7.4935 7.49269C7.17431 7.81193 6.79537 8.06516 6.37833 8.23793C5.96129 8.41069 5.51431 8.49962 5.06291 8.49962C4.61151 8.49962 4.16452 8.41069 3.74748 8.23793C3.33044 8.06516 2.95151 7.81193 2.63232 7.49269C2.31313 7.17346 2.05994 6.79447 1.88719 6.37737C1.71445 5.96027 1.62554 5.51323 1.62554 5.06176C1.62554 4.14999 1.98769 3.27555 2.63232 2.63083C3.27695 1.98611 4.15126 1.62391 5.06291 1.62391C5.97456 1.62391 6.84886 1.98611 7.4935 2.63083C8.13813 3.27555 8.50028 4.14999 8.50028 5.06176Z" fill="#787878" stroke="#787878" stroke-width="0.5"/>
</svg>
