<svg width="25" height="25" viewBox="0 0 25 25" fill="none" xmlns="http://www.w3.org/2000/svg">
<path d="M16 9.7998H17.75C18.2141 9.7998 18.6592 9.98418 18.9874 10.3124C19.3156 10.6406 19.5 11.0857 19.5 11.5498V19.9498C19.5 20.4139 19.3156 20.8591 18.9874 21.1872C18.6592 21.5154 18.2141 21.6998 17.75 21.6998H7.25C6.78587 21.6998 6.34075 21.5154 6.01256 21.1872C5.68437 20.8591 5.5 20.4139 5.5 19.9498V11.5498C5.5 11.0857 5.68437 10.6406 6.01256 10.3124C6.34075 9.98418 6.78587 9.7998 7.25 9.7998H9" stroke="#1E1E70" stroke-width="2" stroke-linecap="round" stroke-linejoin="round"/>
<path d="M16 7L12.5 3.5L9 7" stroke="#1E1E70" stroke-width="2" stroke-linecap="round" stroke-linejoin="round"/>
<path d="M12.5 15.4438V3.5" stroke="#1E1E70" stroke-width="2" stroke-linecap="round" stroke-linejoin="round"/>
</svg>
