<svg width="14" height="12" viewBox="0 0 14 12" fill="none" xmlns="http://www.w3.org/2000/svg">
<path d="M11.6154 2.97391H2.38462C1.61991 2.97391 1 3.59382 1 4.35852V9.89698C1 10.6617 1.61991 11.2816 2.38462 11.2816H11.6154C12.3801 11.2816 13 10.6617 13 9.89698V4.35852C13 3.59382 12.3801 2.97391 11.6154 2.97391Z" stroke="#1E1E70" stroke-linejoin="round"/>
<path d="M11.4815 2.9739V2.10852C11.4815 1.89627 11.4346 1.68665 11.3442 1.49462C11.2537 1.30259 11.1221 1.13288 10.9585 0.997599C10.795 0.862318 10.6036 0.764801 10.398 0.712005C10.1924 0.659209 9.97773 0.652436 9.76923 0.692169L2.17231 1.9888C1.8424 2.05167 1.54478 2.2277 1.33076 2.48653C1.11675 2.74535 0.999773 3.07075 1 3.40659V4.82005" stroke="#1E1E70" stroke-linejoin="round"/>
<path d="M10.2307 8.05084C10.0481 8.05084 9.86966 7.9967 9.71786 7.89527C9.56606 7.79384 9.44775 7.64968 9.37788 7.48101C9.30802 7.31234 9.28974 7.12673 9.32535 6.94768C9.36097 6.76862 9.44889 6.60414 9.57798 6.47505C9.70708 6.34595 9.87155 6.25804 10.0506 6.22242C10.2297 6.1868 10.4153 6.20508 10.5839 6.27495C10.7526 6.34481 10.8968 6.46313 10.9982 6.61492C11.0996 6.76672 11.1538 6.94519 11.1538 7.12776C11.1538 7.37257 11.0565 7.60736 10.8834 7.78047C10.7103 7.95358 10.4755 8.05084 10.2307 8.05084Z" fill="#1E1E70"/>
</svg>
